# 3ds Max Wavefront OBJ Exporter v0.99 - (c)2007 guruware
# File Created: 16.04.2024 16:37:49

#
# object atlas_box_black
#

v  -25.0000 -25.0000 25.0000
v  -25.0000 -25.0000 -25.0000
v  25.0000 -25.0000 -25.0000
v  25.0000 -25.0000 25.0000
v  -25.0000 25.0000 25.0000
v  25.0000 25.0000 25.0000
v  25.0000 25.0000 -25.0000
v  -25.0000 25.0000 -25.0000
# 8 vertices

vn -0.5774 -0.5774 0.5774
vn -0.5774 -0.5774 -0.5774
vn 0.5774 -0.5774 -0.5774
vn 0.5774 -0.5774 0.5774
vn -0.5774 0.5774 0.5774
vn 0.5774 0.5774 0.5774
vn 0.5774 0.5774 -0.5774
vn -0.5774 0.5774 -0.5774
# 8 vertex normals

vt 0.9375 0.8825 0.0000
vt 0.9375 0.8862 0.0000
vt 0.9337 0.8862 0.0000
vt 0.9337 0.8825 0.0000
# 4 texture coords

o atlas_box_black
g atlas_box_black
f 1/1/1 2/2/2 3/3/3 4/4/4 
f 5/4/5 6/1/6 7/2/7 8/3/8 
f 1/4/1 4/1/4 6/2/6 5/3/5 
f 4/4/4 3/1/3 7/2/7 6/3/6 
f 3/4/3 2/1/2 8/2/8 7/3/7 
f 2/4/2 1/1/1 5/2/5 8/3/8 
# 6 polygons

